<?xml version="1.0" standalone="no"?><!DOCTYPE svg PUBLIC "-//W3C//DTD SVG 1.1//EN" "http://www.w3.org/Graphics/SVG/1.1/DTD/svg11.dtd"><svg t="1766919812380" class="icon" viewBox="0 0 1024 1024" version="1.1" xmlns="http://www.w3.org/2000/svg" p-id="4786" xmlns:xlink="http://www.w3.org/1999/xlink" width="256" height="256"><path d="M512 512m-512 0a512 512 0 1 0 1024 0 512 512 0 1 0-1024 0Z" fill="#9420FF" p-id="4787"></path><path d="M224.032 624.96c0.96-48.736 10.624-96 26.496-141.984 12.896-37.504 29.6-73.184 53.728-104.896 15.168-20.16 32.64-37.76 55.744-48.8 20.064-9.76 40.544-13.024 61.984-3.456 14.912 6.784 30.304 12.416 45.376 18.88 31.776 13.664 63.232 12.224 94.56-1.728 12.48-5.504 25.28-10.304 37.664-16.16 24.896-11.648 48.544-7.36 71.424 5.344 25.28 14.112 43.712 35.296 59.424 59.2 28.672 43.328 46.464 91.424 58.336 141.824 8.288 35.328 12.48 71.008 10.912 107.264-0.768 17.632-3.52 35.104-10.752 51.488-11.2 25.184-29.92 34.336-56.672 27.744-16.32-4-30.72-12.192-44.032-22.016-21.824-16.192-42.976-33.088-64.832-49.28-23.936-17.696-49.376-33.184-78.944-39.264-48.992-10.016-94.368-0.8-134.048 29.984-19.36 14.944-36.736 32.448-55.008 48.864-17.152 15.296-35.648 28.48-58.752 32.96a109.888 109.888 0 0 1-22.72 2.144c-19.616-0.48-31.104-12.608-38.56-29.12-9.088-20.16-10.816-41.728-11.328-63.52-0.064-1.792 0-3.648 0-5.44z m166.24-78.112a78.464 78.464 0 0 0 78.624-78.208 78.976 78.976 0 0 0-78.688-79.04c-42.944-0.096-78.432 35.328-78.656 78.56a78.688 78.688 0 0 0 78.72 78.688z m279.616-113.152a17.472 17.472 0 0 0-16.96-17.792 17.696 17.696 0 0 0-17.92 17.472 17.408 17.408 0 0 0 17.408 17.248 17.024 17.024 0 0 0 17.472-16.96z m-53.536 52.192a17.376 17.376 0 0 0-17.216-17.44 17.696 17.696 0 0 0-17.696 17.056c-0.256 9.6 7.744 17.664 17.6 17.6a17.216 17.216 0 0 0 17.312-17.216z m88.32 17.216a17.152 17.152 0 0 0 17.632-16.896 17.376 17.376 0 0 0-16.832-17.76 17.6 17.6 0 0 0-18.08 17.28c0 9.504 7.776 17.28 17.28 17.376z m-34.784 35.104c0-9.6-7.808-17.44-17.248-17.344a17.696 17.696 0 0 0-17.6 17.152 17.408 17.408 0 0 0 17.664 17.6 17.216 17.216 0 0 0 17.184-17.408z m-279.584-26.368a43.52 43.52 0 0 1-43.776-43.488 44.032 44.032 0 0 1 43.424-43.776 43.904 43.904 0 0 1 44 43.584 43.36 43.36 0 0 1-43.648 43.68z" fill="#FFFFFF" p-id="4788"></path></svg>