<?xml version="1.0" standalone="no"?><!DOCTYPE svg PUBLIC "-//W3C//DTD SVG 1.1//EN" "http://www.w3.org/Graphics/SVG/1.1/DTD/svg11.dtd"><svg t="1775122569703" class="icon" viewBox="0 0 1024 1024" version="1.1" xmlns="http://www.w3.org/2000/svg" p-id="11833" width="256" height="256" xmlns:xlink="http://www.w3.org/1999/xlink"><path d="M234.690113 234.695054c13.386167-13.374486-160.634005-209.085856-174.043534-222.483704S21.667836-5.087877 8.29335 8.298291-1.168077 47.300395 12.206409 60.674881s209.109217 187.406339 222.483704 174.020173zM608.054375 548.20703q15.874172-2.090859 39.714632-25.95468 22.006578-22.006578 23.945587-37.892431t-8.4452-26.25838q-10.395889-10.395889-26.25838-8.29335t-39.889843 26.10653q-21.843048 21.843048-23.782056 37.740581t8.293349 26.10653q10.582781 10.536058 26.421911 8.4452zM664.636045 716.036392q-15.897534 2.102539-39.901525 26.11821-21.714559 21.691197-23.711971 37.647135t8.176542 26.188296q10.687908 10.699589 26.573761 8.60873t39.714632-25.95468q22.006578-22.006578 23.945587-37.892431t-8.4452-26.270061q-10.501016-10.536058-26.351826-8.445199z" fill="#1296db" p-id="11834"></path><path d="M1010.258469 580.445966L469.345183 39.53268H219.271491L161.848806 96.955366c3.819613 4.52046 7.615865 9.064281 11.388754 13.58474 19.798912 23.793737 36.116953 44.223411 48.697147 60.985321A95.887474 95.887474 0 1 1 171.520486 221.939648c-16.761911-12.603555-37.191585-28.921597-60.985321-48.720508-4.52046-3.77289-9.064281-7.569142-13.58474-11.388755l-57.422686 57.446047v250.073692l540.913286 540.913286a47.248731 47.248731 0 0 0 66.580412 0L1010.258469 647.119825a47.248731 47.248731 0 0 0 0-66.673859z m-467.230963-71.603145q1.635308-29.050085 32.612721-60.039179 24.342733-24.342733 53.626434-29.13185t52.563483 18.432261q21.375817 21.387497 20.137655 50.671198t-30.837244 58.894463q-28.82815 28.81647-58.567401 30.218163t-50.519348-19.378405q-20.698332-20.604885-19.074704-49.666651zM357.092944 439.202046l28.033858-28.033858 85.690159 85.690159-28.033858 28.033858z m372.523247 315.964939q-1.249843 29.295381-30.837244 58.882782-28.82815 28.82815-58.579082 30.218162t-50.671198-19.530254q-20.604885-20.616566-18.899492-49.748417t32.542637-59.969094q24.529626-24.529626 53.73156-29.201935t52.563484 18.689239q21.399178 21.375817 20.149335 50.647836z m-263.272967-53.614753l-23.09289-23.092891 363.692581-115.125709 22.62566 22.613979z" fill="#1296db" p-id="11835"></path></svg>
