<?xml version="1.0" standalone="no"?><!DOCTYPE svg PUBLIC "-//W3C//DTD SVG 1.1//EN" "http://www.w3.org/Graphics/SVG/1.1/DTD/svg11.dtd"><svg t="1767000866897" class="icon" viewBox="0 0 1024 1024" version="1.1" xmlns="http://www.w3.org/2000/svg" p-id="6674" xmlns:xlink="http://www.w3.org/1999/xlink" width="256" height="256"><path d="M512 512m-469.333333 0a469.333333 469.333333 0 1 0 938.666666 0 469.333333 469.333333 0 1 0-938.666666 0Z" fill="#FF6A00" p-id="6675"></path><path d="M793.088 277.333333A60.245333 60.245333 0 0 1 853.333333 337.578667v265.493333a60.245333 60.245333 0 0 1-60.245333 60.245333h-46.570667a20.074667 20.074667 0 0 0-17.237333 9.770667l-57.92 96.96a60.245333 60.245333 0 0 1-51.712 29.333333h-213.312a60.245333 60.245333 0 0 1-51.776-29.461333l-57.536-96.789333a20.074667 20.074667 0 0 0-17.258667-9.813334h-48.853333A60.245333 60.245333 0 0 1 170.666667 603.072V337.578667A60.245333 60.245333 0 0 1 230.912 277.333333z m0 40.149334H230.912a20.074667 20.074667 0 0 0-20.096 20.096v265.493333c0 11.093333 9.002667 20.074667 20.096 20.074667h48.853333c21.248 0 40.917333 11.2 51.776 29.461333l57.536 96.789333c3.626667 6.08 10.176 9.813333 17.28 9.813334h213.290667a20.074667 20.074667 0 0 0 17.237333-9.770667l57.941334-96.96a60.245333 60.245333 0 0 1 51.690666-29.333333h46.570667c11.093333 0 20.096-8.981333 20.096-20.053334V337.557333a20.074667 20.074667 0 0 0-20.096-20.096z m-453.76 92.373333c11.093333 0 20.074667 8.981333 20.074667 20.053333v24.106667a20.074667 20.074667 0 1 1-40.149334 0v-24.106667c0-11.072 8.981333-20.053333 20.053334-20.053333z m117.781333 0c11.093333 0 20.096 8.981333 20.096 20.053333v24.106667a20.074667 20.074667 0 1 1-40.170666 0v-24.106667c0-11.072 9.002667-20.053333 20.074666-20.053333z m117.802667 0c11.093333 0 20.074667 8.981333 20.074667 20.053333v24.106667a20.074667 20.074667 0 1 1-40.149334 0v-24.106667c0-11.072 8.981333-20.053333 20.074667-20.053333z m117.802667 0c11.093333 0 20.053333 8.981333 20.053333 20.053333v24.106667a20.074667 20.074667 0 1 1-40.149333 0v-24.106667c0-11.072 9.002667-20.053333 20.096-20.053333z" fill="#FFFFFF" p-id="6676"></path></svg>