<?xml version="1.0" standalone="no"?><!DOCTYPE svg PUBLIC "-//W3C//DTD SVG 1.1//EN" "http://www.w3.org/Graphics/SVG/1.1/DTD/svg11.dtd"><svg t="1754446313327" class="icon" viewBox="0 0 1024 1024" version="1.1" xmlns="http://www.w3.org/2000/svg" p-id="15313" width="256" height="256" xmlns:xlink="http://www.w3.org/1999/xlink"><path d="M96 160m64 0l704 0q64 0 64 64l0 576q0 64-64 64l-704 0q-64 0-64-64l0-576q0-64 64-64Z" fill="#3888FF" p-id="15314"></path><path d="M128 640h128v192H160a32 32 0 0 1-32-32v-160zM896 640h-128v192h96a32 32 0 0 0 32-32v-160zM128 384h128V192H160a32 32 0 0 0-32 32v160zM896 384h-128V192h96a32 32 0 0 1 32 32v160zM128 416h128v192H128zM896 416h-128v192h128z" fill="#23B0FF" p-id="15315"></path><path d="M419.84 324l241.472 166.944c14.24 9.856 14.24 32.256 0 42.112l-241.472 166.944c-15.488 10.688-35.84-1.28-35.84-21.088V345.088c0-19.84 20.352-31.776 35.84-21.088z" fill="#FFFFFF" p-id="15316"></path></svg>