<?xml version="1.0" standalone="no"?><!DOCTYPE svg PUBLIC "-//W3C//DTD SVG 1.1//EN" "http://www.w3.org/Graphics/SVG/1.1/DTD/svg11.dtd"><svg t="1754446242986" class="icon" viewBox="0 0 1829 1024" version="1.1" xmlns="http://www.w3.org/2000/svg" p-id="15104" width="457.25" height="256" xmlns:xlink="http://www.w3.org/1999/xlink"><path d="M0 0h1829.770492v1024H0z" fill="#CDCDCD" p-id="15105"></path><path d="M788.983607 302.163934a100.721311 100.721311 0 1 1-201.476197-0.033573A100.721311 100.721311 0 0 1 788.983607 302.163934M979.900852 407.854164c83.262951 0 150.712656-68.725508 150.712656-153.566426C1130.596721 169.44682 1063.163803 100.721311 979.900852 100.721311s-150.712656 68.725508-150.712655 153.566427c0 84.840918 67.449705 153.566426 150.712655 153.566426z m265.853902 101.879606l-66.711082 39.230951v-51.787541c0-42.319738-34.01023-76.883934-75.457049-76.883934H579.04682c-41.530754 0-75.440262 34.648131-75.440263 76.883934V812.820984c0 42.336525 33.993443 76.883934 75.440263 76.883934h524.455869c41.530754 0 75.440262-34.648131 75.440262-76.883934v-25.465705l66.727869 39.230951C1281.410098 847.65377 1326.163934 821.348721 1326.163934 779.213639V557.005639c0-42.034361-44.653115-68.33941-80.40918-47.271869z" fill="#179BD5" p-id="15106"></path><path d="M811.561967 557.442098l132.213508 74.936656a25.549639 25.549639 0 0 1 0 44.619541l-132.213508 74.936656C794.120393 761.822426 772.196721 749.450492 772.196721 729.558033v-149.873312c0.100721-19.774951 21.923672-32.146885 39.365246-22.25941" fill="#FFFFFF" p-id="15107"></path></svg>