<?xml version="1.0" standalone="no"?><!DOCTYPE svg PUBLIC "-//W3C//DTD SVG 1.1//EN" "http://www.w3.org/Graphics/SVG/1.1/DTD/svg11.dtd"><svg t="1754445170405" class="icon" viewBox="0 0 1024 1024" version="1.1" xmlns="http://www.w3.org/2000/svg" p-id="5935" width="256" height="256" xmlns:xlink="http://www.w3.org/1999/xlink"><path d="M146.922125 527.847757c-30.311552 0-59.027759-11.167414-82.957932-30.311552-25.525517-22.334828-41.478966-52.64638-44.669655-87.743966L0.1504 157.727755c-1.595345-33.502242 9.572069-67.004483 31.906897-92.53s52.64638-41.478966 87.743966-44.669655l239.301725-17.548794c70.195173-4.786035 130.818276 47.860345 137.199655 118.055518l19.144138 250.469139c3.19069 33.502242-7.976724 67.004483-30.311552 92.53s-52.64638 41.478966-87.743965 44.669656L156.494194 526.252412c-3.19069 0-6.381379 1.595345-9.572069 1.595345z m248.873794-51.051035zM368.675057 66.7931h-4.786035L122.991952 84.341893c-15.953448 1.595345-31.906897 9.572069-43.07431 22.334828S63.964193 136.988273 63.964193 152.941721l19.144138 250.469139c1.595345 17.548793 9.572069 31.906897 22.334828 43.07431 12.762759 11.167414 30.311552 15.953448 46.265 15.953449l240.89707-17.548794c17.548793-1.595345 31.906897-9.572069 43.074311-22.334827s15.953448-28.716207 15.953448-46.265L432.48885 125.820859C430.893505 92.318617 402.177298 66.7931 368.675057 66.7931z" fill="#2873FB" p-id="5936"></path><path d="M751.557817 574.112757c-23.930173 0-49.45569-6.381379-71.790518-22.334828l-145.17638-97.316035c-28.716207-19.144138-47.860345-47.860345-54.241724-81.362586-6.381379-33.502242 0-67.004483 19.144138-95.72069l127.627587-189.846035c9.572069-14.358104 30.311552-19.144138 44.669655-7.976725 14.358104 9.572069 19.144138 30.311552 7.976724 44.669656l-127.627587 189.846035c-9.572069 14.358104-12.762759 30.311552-9.572069 47.860345 3.19069 17.548793 12.762759 31.906897 27.120863 41.478966l145.176379 97.316035c14.358104 9.572069 30.311552 12.762759 47.860345 9.572069 17.548793-3.19069 31.906897-12.762759 41.478966-27.120863l141.98569-210.585518c19.144138-28.716207 11.167414-68.599828-17.548793-89.33931L746.771782 58.816376c-14.358104-9.572069-19.144138-30.311552-7.976724-44.669656 9.572069-14.358104 30.311552-19.144138 44.669655-7.976724l181.869311 122.841552c59.027759 39.883621 73.385862 118.055518 35.097587 177.083277l-141.985691 210.585518c-25.525517 36.692931-67.004483 57.432414-106.888103 57.432414zM314.433332 1020.80931c-9.572069 0-20.739483-4.786035-27.120862-14.358103-9.572069-14.358104-6.381379-35.097586 9.572069-44.669656l164.320518-108.483448c14.358104-9.572069 23.930173-23.930173 28.716207-39.883621 3.19069-15.953448 0-33.502242-7.976724-47.860345l-138.795001-213.776208c-19.144138-30.311552-59.027759-38.288276-87.743966-19.144138l-146.771724 95.72069c-30.311552 19.144138-38.288276 59.027759-19.144138 87.743966l138.795 213.776208c9.572069 14.358104 4.786035 35.097586-9.572069 44.669655-14.358104 9.572069-35.097586 4.786035-44.669655-9.572069L33.652642 749.600689C-4.635635 690.57293 12.913159 610.805688 71.940918 572.517412l146.771724-95.72069c59.027759-38.288276 138.795001-20.739483 177.083277 38.288276l138.795 213.776208c19.144138 28.716207 23.930173 62.218449 17.548793 95.72069-7.976724 33.502242-27.120862 62.218449-55.837069 79.767241l-162.725173 108.483449c-6.381379 6.381379-12.762759 7.976724-19.144138 7.976724z" fill="#2873FB" p-id="5937"></path><path d="M858.44592 964.972241h-239.301725c-70.195173 0-127.627587-57.432414-127.627586-127.627587V535.824481c0-70.195173 57.432414-127.627587 127.627586-127.627587h239.301725c70.195173 0 127.627587 57.432414 127.627587 127.627587v301.520173c0 70.195173-57.432414 127.627587-127.627587 127.627587z m-239.301725-492.961553c-35.097586 0-63.813793 28.716207-63.813793 63.813793v301.520173c0 35.097586 28.716207 63.813793 63.813793 63.813794h239.301725c35.097586 0 63.813793-28.716207 63.813794-63.813794V535.824481c0-35.097586-28.716207-63.813793-63.813794-63.813793h-239.301725z" fill="#2873FB" p-id="5938"></path></svg>